Coordinates
version=1
nRows=18
nColumns=63
inDegrees=yes

Units are S.I. units (second, meters, Newtons, ...)
If the header above contains a line with 'inDegrees', this indicates whether rotational values are in degrees (yes) or radians (no).

endheader
time	pelvis_tilt	pelvis_list	pelvis_rotation	pelvis_tx	pelvis_ty	pelvis_tz	hip_flexion_r	hip_adduction_r	hip_rotation_r	knee_angle_r	knee_angle_r_beta	ankle_angle_r	subtalar_angle_r	mtp_angle_r	hip_flexion_l	hip_adduction_l	hip_rotation_l	knee_angle_l	knee_angle_l_beta	ankle_angle_l	subtalar_angle_l	mtp_angle_l	L5_S1_Flex_Ext	L5_S1_Lat_Bending	L5_S1_axial_rotation	L4_L5_Flex_Ext	L4_L5_Lat_Bending	L4_L5_axial_rotation	L3_L4_Flex_Ext	L3_L4_Lat_Bending	L3_L4_axial_rotation	L2_L3_Flex_Ext	L2_L3_Lat_Bending	L2_L3_axial_rotation	L1_L2_Flex_Ext	L1_L2_Lat_Bending	L1_L2_axial_rotation	L1_T12_Flex_Ext	L1_T12_Lat_Bending	L1_T12_axial_rotation	Abs_r3	Abs_r2	Abs_r1	Abs_t1	Abs_t2	neck_flexion	neck_bending	neck_rotation	arm_flex_r	arm_add_r	arm_rot_r	elbow_flex_r	pro_sup_r	wrist_flex_r	wrist_dev_r	arm_flex_l	arm_add_l	arm_rot_l	elbow_flex_l	pro_sup_l	wrist_flex_l	wrist_dev_l
1.220339	2.080276	0.023164	111.903130	0.352429	0.434741	0.955298	2.149382	-1.033739	-11.888780	4.283051	0.074753	18.763290	12.356276	0.000000	4.536222	1.510484	-5.063340	6.366761	0.111121	20.876594	5.101891	0.000000	0.043714	-0.161836	-0.618989	0.081181	-0.215241	-0.657676	0.071818	-0.393487	-0.657676	0.049961	-0.393487	-0.541615	0.040593	-0.330015	-0.502928	0.024978	-0.250683	-0.464242	0.312244	-1.830717	-3.442630	0.000000	0.000000	20.652045	1.096391	4.542750	3.658470	-11.558921	32.765422	23.660821	79.059482	0.483483	14.328110	0.273941	-16.498438	40.441238	29.229161	82.344969	1.278271	9.584473
1.237288	2.048842	0.017585	111.780045	0.352534	0.434631	0.955271	2.165271	-1.111025	-12.081921	4.409952	0.076968	18.730715	12.663831	0.000000	4.279874	1.549828	-5.422567	5.929380	0.103487	20.786059	5.568533	0.000000	0.050036	-0.166022	-0.606206	0.092923	-0.220810	-0.644094	0.082205	-0.403666	-0.644094	0.057187	-0.403666	-0.530430	0.046464	-0.338552	-0.492543	0.028591	-0.257168	-0.454655	0.357405	-1.878076	-3.371537	0.000000	0.000000	20.789365	1.243094	4.481438	3.656191	-11.538015	32.437267	23.866947	79.852371	0.572741	14.718666	0.116073	-16.439961	40.016948	29.158106	82.300512	1.173502	9.496225
1.254237	2.036258	0.020328	111.715638	0.352552	0.434544	0.955220	2.164793	-1.165748	-12.337384	4.518494	0.078863	18.709702	13.004850	0.000000	4.059528	1.565508	-5.752991	5.564758	0.097123	20.744091	6.058465	0.000000	0.055487	-0.167749	-0.605065	0.103046	-0.223107	-0.642881	0.091160	-0.407866	-0.642881	0.063417	-0.407866	-0.529432	0.051526	-0.342075	-0.491615	0.031706	-0.259844	-0.453799	0.396341	-1.897616	-3.365189	0.000000	0.000000	20.991768	1.407293	4.455997	3.631380	-11.514503	32.003302	24.094743	80.609096	0.657987	15.155841	-0.022377	-16.360186	39.570276	29.053842	82.326621	1.180964	9.449292
1.271186	2.043940	0.030256	111.737196	0.352450	0.434478	0.955184	2.143125	-1.191894	-12.614845	4.588815	0.080090	18.697040	13.295225	0.000000	3.884849	1.561498	-5.982024	5.277368	0.092107	20.737142	6.512731	0.000000	0.060378	-0.167235	-0.617344	0.112127	-0.222423	-0.655928	0.099194	-0.406616	-0.655928	0.069006	-0.406616	-0.540176	0.056067	-0.341027	-0.501592	0.034500	-0.259048	-0.463008	0.431271	-1.891801	-3.433480	0.000000	0.000000	21.253579	1.565481	4.426993	3.559915	-11.487710	31.341100	24.364808	81.181915	0.732595	15.728696	-0.122801	-16.274780	39.185446	28.927724	82.408714	1.237634	9.417670
1.288136	2.081746	0.058984	111.833356	0.352229	0.434409	0.955227	2.103546	-1.181558	-12.960676	4.627870	0.080772	18.711529	13.625777	0.000000	3.770286	1.524825	-6.098284	5.102700	0.089059	20.788404	6.886396	0.000000	0.063508	-0.162191	-0.643711	0.117940	-0.215713	-0.683943	0.104337	-0.394350	-0.683943	0.072583	-0.394350	-0.563247	0.058973	-0.330739	-0.523015	0.036288	-0.251233	-0.482783	0.453630	-1.834732	-3.580127	0.000000	0.000000	21.570815	1.709115	4.426861	3.249426	-11.753465	25.784434	25.478029	85.493303	0.365317	16.953616	-0.186226	-16.191646	38.908553	28.799603	82.426706	1.290211	9.404779
1.305085	2.095059	0.081789	111.964505	0.352058	0.434395	0.955276	2.054543	-1.186131	-13.229950	4.639658	0.080977	18.750195	13.857991	0.000000	3.678343	1.510732	-6.136012	4.970621	0.086754	20.836429	7.179856	0.000000	0.065617	-0.162375	-0.674821	0.121858	-0.215958	-0.716997	0.107803	-0.394798	-0.716997	0.074994	-0.394798	-0.590468	0.060932	-0.331114	-0.548292	0.037494	-0.251518	-0.506116	0.468698	-1.836814	-3.753151	0.000000	0.000000	21.943347	1.862566	4.375217	3.154733	-11.830945	23.567614	25.868256	87.396349	0.384118	17.591472	-0.231845	-16.154536	38.704905	28.680164	82.421768	1.417331	9.335678
1.322034	2.085069	0.101215	112.088500	0.352001	0.434450	0.955351	2.005184	-1.203300	-13.420965	4.631204	0.080830	18.796610	14.028538	0.000000	3.618184	1.513207	-6.128611	4.901318	0.085544	20.889419	7.374608	0.000000	0.066328	-0.167640	-0.696613	0.123178	-0.222961	-0.740151	0.108970	-0.407599	-0.740151	0.075806	-0.407599	-0.609536	0.061592	-0.341851	-0.565998	0.037900	-0.259674	-0.522460	0.473774	-1.896372	-3.874353	0.000000	0.000000	22.356542	1.981508	4.198817	3.265678	-11.764912	24.314459	25.632799	87.177829	0.645786	17.660009	-0.180289	-16.170008	38.926520	28.503184	82.153491	1.506873	9.076384
1.338983	2.050990	0.114343	112.226679	0.352057	0.434564	0.955503	1.958223	-1.235065	-13.556225	4.606538	0.080399	18.833494	14.114130	0.000000	3.610158	1.532500	-6.071049	4.917721	0.085830	20.950296	7.493803	0.000000	0.065227	-0.178628	-0.712625	0.121133	-0.237576	-0.757164	0.107161	-0.434317	-0.757164	0.074548	-0.434317	-0.623547	0.060570	-0.364259	-0.579008	0.037271	-0.276696	-0.534469	0.465909	-2.020681	-3.963407	0.000000	0.000000	22.796654	2.089327	3.891351	3.582399	-11.586013	27.822795	24.877258	84.933786	1.021475	17.191980	-0.020050	-16.246504	39.599504	28.263259	81.597773	1.512751	8.606736
1.355932	1.984988	0.114973	112.327740	0.352269	0.434737	0.955702	1.926126	-1.291424	-13.577775	4.580212	0.079940	18.846819	14.082995	0.000000	3.636295	1.579220	-5.984769	4.986476	0.087030	20.992523	7.502270	0.000000	0.062860	-0.196059	-0.714579	0.116738	-0.260758	-0.759241	0.103273	-0.476698	-0.759241	0.071843	-0.476698	-0.625257	0.058372	-0.399803	-0.580596	0.035918	-0.303695	-0.535934	0.449005	-2.217858	-3.974276	0.000000	0.000000	23.251199	2.190733	3.464257	4.092855	-11.325057	33.784856	23.699906	80.930092	1.419898	16.210912	0.242263	-16.370001	40.702010	27.927284	80.788666	1.404860	7.876761
1.372881	1.880770	0.083031	112.342522	0.352687	0.434939	0.955923	1.954519	-1.398345	-13.589938	4.601833	0.080317	18.869789	14.131795	0.000000	3.689654	1.662560	-5.973292	5.068432	0.088461	21.008027	7.486842	0.000000	0.061407	-0.221097	-0.695638	0.114039	-0.294059	-0.739115	0.100886	-0.537574	-0.739115	0.070182	-0.537574	-0.608683	0.057023	-0.450860	-0.565206	0.035088	-0.342479	-0.521728	0.438625	-2.501089	-3.868928	0.000000	0.000000	23.717525	2.285037	2.927759	4.743290	-10.984756	41.558965	22.221314	75.769772	1.805428	14.792215	0.548240	-16.510330	41.969843	27.492166	80.006168	1.202873	6.870603
1.389831	1.747919	0.019106	112.282089	0.353292	0.435154	0.956183	2.039737	-1.541772	-13.541485	4.658897	0.081313	18.881011	14.167538	0.000000	3.778837	1.775749	-5.993994	5.171077	0.090252	20.984549	7.403901	0.000000	0.060970	-0.252425	-0.658165	0.113227	-0.335725	-0.699300	0.100167	-0.613746	-0.699300	0.069682	-0.613746	-0.575894	0.056617	-0.514745	-0.534759	0.034838	-0.391006	-0.493624	0.435501	-2.855480	-3.660515	0.000000	0.000000	24.183151	2.365722	2.290409	5.517666	-10.593959	50.796610	20.533422	69.629988	2.076317	13.012707	0.917188	-16.668386	43.516782	26.932069	79.166966	0.826901	5.608263
1.406780	1.582197	-0.068778	112.134357	0.354113	0.435394	0.956434	2.169446	-1.718232	-13.402776	4.747875	0.082866	18.877786	14.168353	0.000000	3.881738	1.918422	-6.061482	5.276919	0.092100	20.911362	7.262256	0.000000	0.060849	-0.290307	-0.601408	0.113002	-0.386109	-0.638996	0.099968	-0.705853	-0.638996	0.069544	-0.705853	-0.526232	0.056504	-0.591995	-0.488644	0.034769	-0.449686	-0.451056	0.434635	-3.284016	-3.344849	0.000000	0.000000	24.632501	2.437016	1.574896	6.410785	-10.179998	61.221658	18.671776	62.693018	2.160063	10.907872	1.336761	-16.848831	45.360628	26.257095	78.286249	0.217215	4.139093
1.423729	1.376121	-0.190615	111.921988	0.355126	0.435603	0.956714	2.345102	-1.938479	-13.180641	4.855530	0.084745	18.869189	14.123302	0.000000	4.013468	2.098362	-6.230298	5.392333	0.094114	20.801317	7.175103	0.000000	0.061986	-0.336411	-0.533052	0.115115	-0.447427	-0.566367	0.101838	-0.817950	-0.566367	0.070844	-0.817950	-0.466420	0.057561	-0.686010	-0.433104	0.035419	-0.521101	-0.399789	0.442763	-3.805552	-2.964673	0.000000	0.000000	25.063385	2.509259	0.749693	7.443635	-9.742703	72.888617	16.746549	54.839790	2.085761	8.549279	1.589114	-17.324361	42.952904	26.121046	81.344146	-0.875414	2.945917
1.440678	1.164006	-0.338376	111.638767	0.356242	0.435796	0.956994	2.574936	-2.173624	-12.941980	4.997461	0.087222	18.855309	14.124663	0.000000	4.162786	2.288257	-6.464933	5.495587	0.095916	20.655436	7.083360	0.000000	0.065690	-0.383897	-0.453633	0.121993	-0.510582	-0.481986	0.107922	-0.933406	-0.481986	0.075077	-0.933406	-0.396929	0.061000	-0.782842	-0.368577	0.037535	-0.594656	-0.340225	0.469219	-4.342714	-2.522973	0.000000	0.000000	25.456264	2.560491	-0.070680	8.521021	-9.355347	84.597286	14.858936	46.929198	1.864594	6.060947	1.962361	-17.654482	43.041170	25.536775	82.150622	-1.970221	1.455992
1.457627	0.952765	-0.494982	111.288932	0.357426	0.435979	0.957260	2.835118	-2.407838	-12.650133	5.159976	0.090059	18.832552	14.117115	0.000000	4.304844	2.480260	-6.727341	5.569647	0.097209	20.468924	6.946228	0.000000	0.069989	-0.430288	-0.365566	0.129977	-0.572283	-0.388414	0.114986	-1.046202	-0.388414	0.079991	-1.046202	-0.319870	0.064992	-0.877443	-0.297022	0.039992	-0.666516	-0.274174	0.499927	-4.867503	-2.033167	0.000000	0.000000	25.803381	2.599929	-0.816124	9.635345	-9.057040	96.146380	13.046183	38.999514	1.503051	3.509130	2.456152	-17.867991	45.429573	24.562353	80.874715	-3.106653	-0.215499
1.474576	0.749848	-0.656186	110.886273	0.358642	0.436134	0.957494	3.116304	-2.631615	-12.316174	5.335061	0.093114	18.802117	14.095789	0.000000	4.440242	2.665570	-7.028910	5.622318	0.098128	20.270377	6.796783	0.000000	0.074509	-0.473995	-0.271290	0.138371	-0.630413	-0.288246	0.122411	-1.152470	-0.288246	0.085157	-1.152470	-0.237379	0.069189	-0.966570	-0.220423	0.042575	-0.734218	-0.203468	0.532212	-5.361921	-1.508835	0.000000	0.000000	26.102067	2.642323	-1.458958	10.722834	-8.858024	107.067336	11.384386	31.379360	1.033464	0.980079	3.036677	-17.965334	49.783046	23.274687	78.014587	-4.200346	-1.860628
1.491525	0.565636	-0.806805	110.454011	0.359830	0.436261	0.957688	3.392256	-2.829847	-11.936586	5.501924	0.096027	18.755255	14.042154	0.000000	4.552333	2.832573	-7.342733	5.645732	0.098537	20.073317	6.634088	0.000000	0.077695	-0.512359	-0.174901	0.144287	-0.681438	-0.185832	0.127644	-1.245750	-0.185832	0.088797	-1.245750	-0.153038	0.072147	-1.044803	-0.142107	0.044395	-0.793644	-0.131176	0.554965	-5.795910	-0.972747	0.000000	0.000000	26.333849	2.685260	-1.957974	11.759054	-8.786269	117.117436	9.932843	24.145588	0.472207	-1.346923	3.716593	-17.957116	56.023890	21.729041	73.869802	-5.185518	-3.382954
1.508475	0.410677	-0.960509	109.982954	0.360943	0.436313	0.957788	3.681032	-2.998865	-11.486093	5.665830	0.098887	18.718339	13.947655	0.000000	4.655308	2.979209	-7.682460	5.645419	0.098531	19.904993	6.459252	0.000000	0.083733	-0.543997	-0.074163	0.155501	-0.723516	-0.078798	0.137565	-1.322674	-0.078798	0.095699	-1.322674	-0.064893	0.077755	-1.109318	-0.060257	0.047845	-0.842651	-0.055622	0.598098	-6.153800	-0.412472	0.000000	0.000000	26.460445	2.718666	-2.331761	12.673049	-8.887877	125.486227	8.742799	18.144848	-0.175918	-3.388092	4.464825	-17.835001	63.682600	20.007622	69.266657	-6.071216	-4.678489
